{"title":"See No Evil - S01E02 - View To A Rampage","uid":15897803,"size":1185916557,"categoryP":"video","categoryS":"tv_shows","magnet":"?xt=urn:btih:7710115d7028ac93c4b3f46c0adcbab159145c8d&amp;dn=See+No+Evil+-+S01E02+-+View+To+A+Rampage&amp;tr=udp%3A%2F%2Ftracker.leechers-paradise.org%3A6969&amp;tr=udp%3A%2F%2Fzer0day.ch%3A1337&amp;tr=udp%3A%2F%2Fopen.demonii.com%3A1337&amp;tr=udp%3A%2F%2Ftracker.coppersurfer.tk%3A6969&amp;tr=udp%3A%2F%2Fexodus.desync.com%3A6969","seeders":7,"leechers":5,"uploader":"Bullrout","files":1,"time":1474977670,"description":"See No Evil - S01E02 - View To A Rampage\r\n\r\nA couple, just engaged, is found brutally murdered in a car. To investigators it looks like an execution. No leads until a surveillance camera 90 miles away gives the investigation its first break - a killer bent on revenge. It's a race against time.\r\n\r\nComplete name : See No Evil - S01E02 - View To A Rampage.mkv\r\nFormat : Matroska\r\nFormat version : Version 4 / Version 2\r\nFile size : 1.10 GiB\r\nDuration : 47 min 42 s\r\nOverall bit rate mode : Variable\r\nOverall bit rate : 3 314 kb/s\r\nEncoded date : UTC 2016-09-26 03:15:31\r\nWriting application : mkvmerge v9.4.2 ('So High') 64bit\r\nWriting library : libebml v1.3.4 + libmatroska v1.4.5\r\n\r\nVideo\r\nID : 2\r\nFormat : AVC\r\nFormat/Info : Advanced Video Codec\r\nFormat profile :   \r\nFormat settings, CABAC : Yes\r\nFormat settings, ReFrames : 3 frames\r\nCodec ID : V_MPEG4/ISO/AVC\r\nDuration : 47 min 42 s\r\nBit rate mode : Variable\r\nBit rate : 2 928 kb/s\r\nMaximum bit rate : 3 000 kb/s\r\nWidth : 1 280 pixels\r\nHeight : 720 pixels\r\nDisplay aspect ratio : 16:9\r\nFrame rate mode : Constant\r\nFrame rate : 25.000 FPS\r\nStandard : PAL\r\nColor space : YUV\r\nChroma subsampling : 4:2:0\r\nBit depth : 8 bits\r\nScan type : Progressive\r\nBits/(Pixel*Frame) : 0.127\r\nStream size : 999 MiB (88%)\r\nWriting library : x264 core 112\r\nDefault : Yes\r\nForced : No\r\nColor range : Limited\r\nColor primaries : BT.709\r\nTransfer characteristics : BT.709\r\nMatrix coefficients : BT.709\r\n\r\nAudio\r\nID : 1\r\nFormat : AC-3\r\nFormat/Info : Audio Coding 3\r\nMode extension : CM (complete main)\r\nFormat settings, Endianness : Big\r\nCodec ID : A_AC3\r\nDuration : 47 min 42 s\r\nBit rate mode : Constant\r\nBit rate : 384 kb/s\r\nChannel(s) : 6 channels\r\nChannel positions : Front: L C R, Side: L R, LFE\r\nSampling rate : 48.0 kHz\r\nFrame rate : 31.250 FPS (1536 spf)\r\nCompression mode : Lossy\r\nStream size : 131 MiB (12%)\r\nDefault : Yes\r\nForced : No","torrent":{"xt":"urn:btih:7710115d7028ac93c4b3f46c0adcbab159145c8d","amp;dn":"See+No+Evil+-+S01E02+-+View+To+A+Rampage","amp;tr":["udp%3A%2F%2Ftracker.leechers-paradise.org%3A6969","udp%3A%2F%2Fzer0day.ch%3A1337","udp%3A%2F%2Fopen.demonii.com%3A1337","udp%3A%2F%2Ftracker.coppersurfer.tk%3A6969","udp%3A%2F%2Fexodus.desync.com%3A6969"],"infoHash":"7710115d7028ac93c4b3f46c0adcbab159145c8d","infoHashBuffer":{"type":"Buffer","data":[119,16,17,93,112,40,172,147,196,179,244,108,10,220,186,177,89,20,92,141]},"announce":[],"urlList":[]}}